<mxfile host="65bd71144e">
    <diagram id="0WOPJTrIAdzrLueGacQA" name="第 1 页">
        <mxGraphModel dx="1132" dy="723" grid="0" gridSize="10" guides="1" tooltips="1" connect="1" arrows="0" fold="1" page="1" pageScale="1" pageWidth="1400" pageHeight="850" background="none" math="1" shadow="0">
            <root>
                <mxCell id="0"/>
                <mxCell id="1" parent="0"/>
                <mxCell id="43" value="" style="group;sketch=1;curveFitting=1;jiggle=2;" parent="1" vertex="1" connectable="0">
                    <mxGeometry x="12" y="280" width="120" height="120" as="geometry"/>
                </mxCell>
                <mxCell id="39" value="" style="aspect=fixed;perimeter=ellipsePerimeter;html=1;align=center;shadow=0;dashed=0;spacingTop=3;image;image=img/lib/active_directory/databases.svg;sketch=1;curveFitting=1;jiggle=2;" parent="43" vertex="1">
                    <mxGeometry width="90.45305318450426" height="88.64084044648718" as="geometry"/>
                </mxCell>
                <mxCell id="40" value="" style="aspect=fixed;perimeter=ellipsePerimeter;html=1;align=center;shadow=0;dashed=0;spacingTop=3;image;image=img/lib/active_directory/databases.svg;sketch=1;curveFitting=1;jiggle=2;" parent="43" vertex="1">
                    <mxGeometry x="9.84898227183191" y="10" width="90.45305318450426" height="88.64084044648718" as="geometry"/>
                </mxCell>
                <mxCell id="41" value="" style="aspect=fixed;perimeter=ellipsePerimeter;html=1;align=center;shadow=0;dashed=0;spacingTop=3;image;image=img/lib/active_directory/databases.svg;sketch=1;curveFitting=1;jiggle=2;" parent="43" vertex="1">
                    <mxGeometry x="19.69796454366382" y="20" width="90.45305318450426" height="88.64084044648718" as="geometry"/>
                </mxCell>
                <mxCell id="42" value="" style="aspect=fixed;perimeter=ellipsePerimeter;html=1;align=center;shadow=0;dashed=0;spacingTop=3;image;image=img/lib/active_directory/databases.svg;sketch=1;curveFitting=1;jiggle=2;" parent="43" vertex="1">
                    <mxGeometry x="29.546946815495726" y="30" width="90.45305318450426" height="88.64084044648718" as="geometry"/>
                </mxCell>
                <mxCell id="44" value="" style="group;sketch=1;curveFitting=1;jiggle=2;" parent="1" vertex="1" connectable="0">
                    <mxGeometry x="233" y="310" width="148" height="102" as="geometry"/>
                </mxCell>
                <mxCell id="36" value="" style="rounded=1;whiteSpace=wrap;html=1;sketch=1;curveFitting=1;jiggle=2;" parent="44" vertex="1">
                    <mxGeometry width="120" height="60" as="geometry"/>
                </mxCell>
                <mxCell id="37" value="" style="rounded=1;whiteSpace=wrap;html=1;sketch=1;curveFitting=1;jiggle=2;" parent="44" vertex="1">
                    <mxGeometry x="10" y="10" width="120" height="60" as="geometry"/>
                </mxCell>
                <mxCell id="38" value="数据提取" style="rounded=1;whiteSpace=wrap;html=1;sketch=1;curveFitting=1;jiggle=2;" parent="44" vertex="1">
                    <mxGeometry x="20" y="20" width="120" height="60" as="geometry"/>
                </mxCell>
                <mxCell id="91" value="" style="shape=image;verticalLabelPosition=bottom;labelBackgroundColor=default;verticalAlign=top;aspect=fixed;imageAspect=0;image=data:image/svg+xml,PHN2ZyB4bWxuczp4bGluaz0iaHR0cDovL3d3dy53My5vcmcvMTk5OS94bGluayIgeG1sbnM9Imh0dHA6Ly93d3cudzMub3JnLzIwMDAvc3ZnIiBoZWlnaHQ9IjIwMCIgd2lkdGg9IjIwMCIgdmVyc2lvbj0iMS4xIiB2aWV3Qm94PSIwIDAgMTAyNCAxMDI0IiBjbGFzcz0iaWNvbiI+PHBhdGggZmlsbD0iIzI3MjYzNiIgZD0iTTc1My44NDUxMTcgMzcxLjY3NDAyMWwtMTcuNDYyNzIgMCAwLTgzLjY2OTYwOGMwLTU5LjI3NTAxMi0yMi42MjgzNy0xMTUuMjAzODEyLTYzLjcxNTEzNy0xNTcuNDgyNzMxLTQyLjE3MDQ0OC00My4zOTQzMjMtOTkuMzY5MTcyLTY3LjI5MTU5Mi0xNjEuMDU4MTYzLTY3LjI5MTU5Mi0xMjYuMDQwNjI0IDAtMjI0Ljc3MjI3NiA5OC43MzE2NTItMjI0Ljc3MjI3NiAyMjQuNzczM2wwIDgzLjY2OTYwOC0xNi42ODA5MTQgMGMtNjIuNzg4MDIyIDAtMTEzLjY4ODI5NSA1MC45MDAyNzQtMTEzLjY4ODI5NSAxMTMuNjg4Mjk1TDE1Ni40Njc2MTEgODQyLjk2MTc4NGMwIDYyLjc4ODAyMiA1MC45MDAyNzQgMTEzLjY4ODI5NSAxMTMuNjg4Mjk1IDExMy42ODgyOTVsNDgzLjY5MDIzNCAwYzYyLjc4ODAyMiAwIDExMy42ODgyOTUtNTAuOTAwMjc0IDExMy42ODgyOTUtMTEzLjY4ODI5NUw4NjcuNTM0NDM2IDQ4NS4zNjIzMTZDODY3LjUzMjM4OSA0MjIuNTc0Mjk1IDgxNi42MzMxMzkgMzcxLjY3NDAyMSA3NTMuODQ1MTE3IDM3MS42NzQwMjF6TTMyOC4xNzYzNDQgMjg4LjAwNTQzNmMwLTEwMi44NTg2NDYgODAuNTczMDgzLTE4My40MzI3NTMgMTgzLjQzMTcyOS0xODMuNDMyNzUzIDUwLjQyMzQxMyAwIDk3LjA5MzMzOSAxOS40NDc5MzQgMTMxLjQxMDkzNSA1NC43NjIyMzEgMzMuNTQ3MDQ3IDM0LjUxOTE4OCA1Mi4wMjE4MTcgODAuMjE0OTI2IDUyLjAyMTgxNyAxMjguNjcwNTIxbDAgODMuNjY5NjA4TDMyOC4xNzYzNDQgMzcxLjY3NTA0NCAzMjguMTc2MzQ0IDI4OC4wMDU0MzZ6TTgyNi4xOTE4NDIgODQyLjk2MTc4NGMwIDM5Ljk1NjAxNC0zMi4zOTA3MTEgNzIuMzQ2NzI1LTcyLjM0NjcyNSA3Mi4zNDY3MjVMMjcwLjE1NDg4MyA5MTUuMzA4NTA5Yy0zOS45NTYwMTQgMC03Mi4zNDY3MjUtMzIuMzkwNzExLTcyLjM0NjcyNS03Mi4zNDY3MjVMMTk3LjgwODE1OCA0ODUuMzYyMzE2YzAtMzkuOTU2MDE0IDMyLjM5MDcxMS03Mi4zNDY3MjUgNzIuMzQ2NzI1LTcyLjM0NjcyNWw0ODMuNjkwMjM0IDBjMzkuOTU2MDE0IDAgNzIuMzQ2NzI1IDMyLjM5MDcxMSA3Mi4zNDY3MjUgNzIuMzQ2NzI1TDgyNi4xOTE4NDIgODQyLjk2MTc4NHoiLz48cGF0aCBmaWxsPSIjMjcyNjM2IiBkPSJNNTA5LjkzMjkyMSA1ODAuNDQ2OTA1Yy0xMS40MTYwMDQgMC0yMC42NzA3ODUgOS4yNTQ3ODEtMjAuNjcwNzg1IDIwLjY3MDc4NWwwIDEwOS41NTQxMzhjMCAxMS40MTQ5ODEgOS4yNTQ3ODEgMjAuNjcwNzg1IDIwLjY3MDc4NSAyMC42NzA3ODUgMTEuNDE2MDA0IDAgMjAuNjcwNzg1LTkuMjU0NzgxIDIwLjY3MDc4NS0yMC42NzA3ODVMNTMwLjYwMzcwNyA2MDEuMTE2NjY3QzUzMC42MDI2ODMgNTg5LjcwMTY4NiA1MjEuMzQ4OTI1IDU4MC40NDY5MDUgNTA5LjkzMjkyMSA1ODAuNDQ2OTA1eiIvPjwvc3ZnPg==;" vertex="1" parent="44">
                    <mxGeometry x="106" y="60" width="42" height="42" as="geometry"/>
                </mxCell>
                <mxCell id="47" value="" style="shape=flexArrow;endArrow=classic;html=1;sketch=1;curveFitting=1;jiggle=2;" parent="1" edge="1">
                    <mxGeometry width="50" height="50" relative="1" as="geometry">
                        <mxPoint x="162" y="350" as="sourcePoint"/>
                        <mxPoint x="222" y="350" as="targetPoint"/>
                    </mxGeometry>
                </mxCell>
                <mxCell id="49" value="" style="rounded=1;whiteSpace=wrap;html=1;sketch=1;curveFitting=1;jiggle=2;" parent="1" vertex="1">
                    <mxGeometry x="412" y="430" width="120" height="250" as="geometry"/>
                </mxCell>
                <mxCell id="67" style="edgeStyle=orthogonalEdgeStyle;html=1;entryX=0.433;entryY=1.017;entryDx=0;entryDy=0;entryPerimeter=0;curved=1;fillColor=#f8cecc;strokeColor=#b85450;sketch=1;curveFitting=1;jiggle=2;" parent="1" source="50" target="62" edge="1">
                    <mxGeometry relative="1" as="geometry"/>
                </mxCell>
                <mxCell id="50" value="id1～1000数据" style="rounded=1;whiteSpace=wrap;html=1;sketch=1;curveFitting=1;jiggle=2;" parent="1" vertex="1">
                    <mxGeometry x="412" y="620" width="120" height="60" as="geometry"/>
                </mxCell>
                <mxCell id="51" value="id 1002～3000数据" style="rounded=1;whiteSpace=wrap;html=1;sketch=1;curveFitting=1;jiggle=2;" parent="1" vertex="1">
                    <mxGeometry x="412" y="560" width="120" height="60" as="geometry"/>
                </mxCell>
                <mxCell id="52" value="....." style="rounded=1;whiteSpace=wrap;html=1;sketch=1;curveFitting=1;jiggle=2;" parent="1" vertex="1">
                    <mxGeometry x="412" y="500" width="120" height="60" as="geometry"/>
                </mxCell>
                <mxCell id="59" value="" style="group;sketch=1;curveFitting=1;jiggle=2;" parent="1" vertex="1" connectable="0">
                    <mxGeometry x="601" y="310" width="147" height="102" as="geometry"/>
                </mxCell>
                <mxCell id="60" value="" style="rounded=1;whiteSpace=wrap;html=1;sketch=1;curveFitting=1;jiggle=2;" parent="59" vertex="1">
                    <mxGeometry width="120" height="60" as="geometry"/>
                </mxCell>
                <mxCell id="61" value="" style="rounded=1;whiteSpace=wrap;html=1;sketch=1;curveFitting=1;jiggle=2;" parent="59" vertex="1">
                    <mxGeometry x="10" y="10" width="120" height="60" as="geometry"/>
                </mxCell>
                <mxCell id="62" value="数据转换" style="rounded=1;whiteSpace=wrap;html=1;sketch=1;curveFitting=1;jiggle=2;" parent="59" vertex="1">
                    <mxGeometry x="20" y="20" width="120" height="60" as="geometry"/>
                </mxCell>
                <mxCell id="92" value="" style="shape=image;verticalLabelPosition=bottom;labelBackgroundColor=default;verticalAlign=top;aspect=fixed;imageAspect=0;image=data:image/svg+xml,PHN2ZyB4bWxuczp4bGluaz0iaHR0cDovL3d3dy53My5vcmcvMTk5OS94bGluayIgeG1sbnM9Imh0dHA6Ly93d3cudzMub3JnLzIwMDAvc3ZnIiBoZWlnaHQ9IjIwMCIgd2lkdGg9IjIwMCIgdmVyc2lvbj0iMS4xIiB2aWV3Qm94PSIwIDAgMTAyNCAxMDI0IiBjbGFzcz0iaWNvbiI+PHBhdGggZmlsbD0iIzI3MjYzNiIgZD0iTTc1My44NDUxMTcgMzcxLjY3NDAyMWwtMTcuNDYyNzIgMCAwLTgzLjY2OTYwOGMwLTU5LjI3NTAxMi0yMi42MjgzNy0xMTUuMjAzODEyLTYzLjcxNTEzNy0xNTcuNDgyNzMxLTQyLjE3MDQ0OC00My4zOTQzMjMtOTkuMzY5MTcyLTY3LjI5MTU5Mi0xNjEuMDU4MTYzLTY3LjI5MTU5Mi0xMjYuMDQwNjI0IDAtMjI0Ljc3MjI3NiA5OC43MzE2NTItMjI0Ljc3MjI3NiAyMjQuNzczM2wwIDgzLjY2OTYwOC0xNi42ODA5MTQgMGMtNjIuNzg4MDIyIDAtMTEzLjY4ODI5NSA1MC45MDAyNzQtMTEzLjY4ODI5NSAxMTMuNjg4Mjk1TDE1Ni40Njc2MTEgODQyLjk2MTc4NGMwIDYyLjc4ODAyMiA1MC45MDAyNzQgMTEzLjY4ODI5NSAxMTMuNjg4Mjk1IDExMy42ODgyOTVsNDgzLjY5MDIzNCAwYzYyLjc4ODAyMiAwIDExMy42ODgyOTUtNTAuOTAwMjc0IDExMy42ODgyOTUtMTEzLjY4ODI5NUw4NjcuNTM0NDM2IDQ4NS4zNjIzMTZDODY3LjUzMjM4OSA0MjIuNTc0Mjk1IDgxNi42MzMxMzkgMzcxLjY3NDAyMSA3NTMuODQ1MTE3IDM3MS42NzQwMjF6TTMyOC4xNzYzNDQgMjg4LjAwNTQzNmMwLTEwMi44NTg2NDYgODAuNTczMDgzLTE4My40MzI3NTMgMTgzLjQzMTcyOS0xODMuNDMyNzUzIDUwLjQyMzQxMyAwIDk3LjA5MzMzOSAxOS40NDc5MzQgMTMxLjQxMDkzNSA1NC43NjIyMzEgMzMuNTQ3MDQ3IDM0LjUxOTE4OCA1Mi4wMjE4MTcgODAuMjE0OTI2IDUyLjAyMTgxNyAxMjguNjcwNTIxbDAgODMuNjY5NjA4TDMyOC4xNzYzNDQgMzcxLjY3NTA0NCAzMjguMTc2MzQ0IDI4OC4wMDU0MzZ6TTgyNi4xOTE4NDIgODQyLjk2MTc4NGMwIDM5Ljk1NjAxNC0zMi4zOTA3MTEgNzIuMzQ2NzI1LTcyLjM0NjcyNSA3Mi4zNDY3MjVMMjcwLjE1NDg4MyA5MTUuMzA4NTA5Yy0zOS45NTYwMTQgMC03Mi4zNDY3MjUtMzIuMzkwNzExLTcyLjM0NjcyNS03Mi4zNDY3MjVMMTk3LjgwODE1OCA0ODUuMzYyMzE2YzAtMzkuOTU2MDE0IDMyLjM5MDcxMS03Mi4zNDY3MjUgNzIuMzQ2NzI1LTcyLjM0NjcyNWw0ODMuNjkwMjM0IDBjMzkuOTU2MDE0IDAgNzIuMzQ2NzI1IDMyLjM5MDcxMSA3Mi4zNDY3MjUgNzIuMzQ2NzI1TDgyNi4xOTE4NDIgODQyLjk2MTc4NHoiLz48cGF0aCBmaWxsPSIjMjcyNjM2IiBkPSJNNTA5LjkzMjkyMSA1ODAuNDQ2OTA1Yy0xMS40MTYwMDQgMC0yMC42NzA3ODUgOS4yNTQ3ODEtMjAuNjcwNzg1IDIwLjY3MDc4NWwwIDEwOS41NTQxMzhjMCAxMS40MTQ5ODEgOS4yNTQ3ODEgMjAuNjcwNzg1IDIwLjY3MDc4NSAyMC42NzA3ODUgMTEuNDE2MDA0IDAgMjAuNjcwNzg1LTkuMjU0NzgxIDIwLjY3MDc4NS0yMC42NzA3ODVMNTMwLjYwMzcwNyA2MDEuMTE2NjY3QzUzMC42MDI2ODMgNTg5LjcwMTY4NiA1MjEuMzQ4OTI1IDU4MC40NDY5MDUgNTA5LjkzMjkyMSA1ODAuNDQ2OTA1eiIvPjwvc3ZnPg==;" vertex="1" parent="59">
                    <mxGeometry x="105" y="60" width="42" height="42" as="geometry"/>
                </mxCell>
                <mxCell id="65" style="edgeStyle=orthogonalEdgeStyle;html=1;exitX=1;exitY=0.5;exitDx=0;exitDy=0;entryX=0.5;entryY=0;entryDx=0;entryDy=0;curved=1;fillColor=#f8cecc;strokeColor=#b85450;sketch=1;curveFitting=1;jiggle=2;" parent="1" source="38" target="52" edge="1">
                    <mxGeometry relative="1" as="geometry"/>
                </mxCell>
                <mxCell id="80" style="edgeStyle=orthogonalEdgeStyle;curved=1;html=1;entryX=0.5;entryY=1;entryDx=0;entryDy=0;fontSize=16;fillColor=#1ba1e2;strokeColor=#006EAF;sketch=1;curveFitting=1;jiggle=2;" parent="1" source="69" target="78" edge="1">
                    <mxGeometry relative="1" as="geometry"/>
                </mxCell>
                <mxCell id="72" style="edgeStyle=orthogonalEdgeStyle;curved=1;html=1;entryX=0.5;entryY=0;entryDx=0;entryDy=0;dashed=1;sketch=1;curveFitting=1;jiggle=2;" parent="1" source="40" target="60" edge="1">
                    <mxGeometry relative="1" as="geometry">
                        <Array as="points">
                            <mxPoint x="67" y="205"/>
                            <mxPoint x="357" y="205"/>
                            <mxPoint x="357" y="201"/>
                            <mxPoint x="661" y="201"/>
                        </Array>
                    </mxGeometry>
                </mxCell>
                <mxCell id="73" value="&lt;font style=&quot;font-size: 16px;&quot;&gt;相关信息读取&lt;/font&gt;" style="edgeLabel;html=1;align=center;verticalAlign=middle;resizable=0;points=[];sketch=1;curveFitting=1;jiggle=2;" parent="72" vertex="1" connectable="0">
                    <mxGeometry x="-0.0372" y="2" relative="1" as="geometry">
                        <mxPoint as="offset"/>
                    </mxGeometry>
                </mxCell>
                <mxCell id="75" value="" style="group;sketch=1;curveFitting=1;jiggle=2;" parent="1" vertex="1" connectable="0">
                    <mxGeometry x="1020" y="310" width="140" height="80" as="geometry"/>
                </mxCell>
                <mxCell id="76" value="" style="rounded=1;whiteSpace=wrap;html=1;sketch=1;curveFitting=1;jiggle=2;" parent="75" vertex="1">
                    <mxGeometry width="120" height="60" as="geometry"/>
                </mxCell>
                <mxCell id="77" value="" style="rounded=1;whiteSpace=wrap;html=1;sketch=1;curveFitting=1;jiggle=2;" parent="75" vertex="1">
                    <mxGeometry x="10" y="10" width="120" height="60" as="geometry"/>
                </mxCell>
                <mxCell id="78" value="数据加载" style="rounded=1;whiteSpace=wrap;html=1;sketch=1;curveFitting=1;jiggle=2;" parent="75" vertex="1">
                    <mxGeometry x="20" y="20" width="120" height="60" as="geometry"/>
                </mxCell>
                <mxCell id="82" value="" style="aspect=fixed;perimeter=ellipsePerimeter;html=1;align=center;shadow=0;dashed=0;spacingTop=3;image;image=img/lib/active_directory/databases.svg;imageBackground=default;sketch=1;curveFitting=1;jiggle=2;" parent="1" vertex="1">
                    <mxGeometry x="1257.996946815496" y="303" width="90.45305318450426" height="88.64084044648718" as="geometry"/>
                </mxCell>
                <mxCell id="86" value="" style="shape=flexArrow;endArrow=classic;html=1;sketch=1;curveFitting=1;jiggle=2;" parent="1" edge="1">
                    <mxGeometry width="50" height="50" relative="1" as="geometry">
                        <mxPoint x="1189" y="349.5" as="sourcePoint"/>
                        <mxPoint x="1249" y="349.5" as="targetPoint"/>
                    </mxGeometry>
                </mxCell>
                <mxCell id="87" value="只读数据库" style="text;html=1;align=center;verticalAlign=middle;resizable=0;points=[];autosize=1;fontSize=16;labelBackgroundColor=none;labelBorderColor=none;fontColor=#121712;sketch=1;curveFitting=1;jiggle=2;" parent="1" vertex="1">
                    <mxGeometry x="22" y="400" width="100" height="30" as="geometry"/>
                </mxCell>
                <mxCell id="88" value="目标数据库" style="text;html=1;align=center;verticalAlign=middle;resizable=0;points=[];autosize=1;fontSize=16;labelBackgroundColor=none;labelBorderColor=none;fontColor=#121712;sketch=1;curveFitting=1;jiggle=2;" parent="1" vertex="1">
                    <mxGeometry x="1258" y="397.32" width="100" height="30" as="geometry"/>
                </mxCell>
                <mxCell id="89" value="" style="group;sketch=1;curveFitting=1;jiggle=2;" parent="1" vertex="1" connectable="0">
                    <mxGeometry x="821" y="429" width="135" height="250" as="geometry"/>
                </mxCell>
                <mxCell id="68" value="" style="rounded=1;whiteSpace=wrap;html=1;sketch=1;curveFitting=1;jiggle=2;" parent="89" vertex="1">
                    <mxGeometry width="120" height="250" as="geometry"/>
                </mxCell>
                <mxCell id="69" value="组装好的1000条数据" style="rounded=1;whiteSpace=wrap;html=1;sketch=1;curveFitting=1;jiggle=2;" parent="89" vertex="1">
                    <mxGeometry y="190" width="120" height="60" as="geometry"/>
                </mxCell>
                <mxCell id="70" value="组装好的1000条数据" style="rounded=1;whiteSpace=wrap;html=1;sketch=1;curveFitting=1;jiggle=2;" parent="89" vertex="1">
                    <mxGeometry y="130" width="120" height="60" as="geometry"/>
                </mxCell>
                <mxCell id="71" value="组装好的501条数据" style="rounded=1;whiteSpace=wrap;html=1;sketch=1;curveFitting=1;jiggle=2;" parent="89" vertex="1">
                    <mxGeometry y="70" width="120" height="60" as="geometry"/>
                </mxCell>
                <mxCell id="74" value="...." style="rounded=1;whiteSpace=wrap;html=1;sketch=1;curveFitting=1;jiggle=2;" parent="89" vertex="1">
                    <mxGeometry y="10" width="120" height="60" as="geometry"/>
                </mxCell>
                <mxCell id="97" value="" style="shape=image;verticalLabelPosition=bottom;labelBackgroundColor=default;verticalAlign=top;aspect=fixed;imageAspect=0;image=data:image/svg+xml,PHN2ZyB4bWxuczp4bGluaz0iaHR0cDovL3d3dy53My5vcmcvMTk5OS94bGluayIgeG1sbnM9Imh0dHA6Ly93d3cudzMub3JnLzIwMDAvc3ZnIiBoZWlnaHQ9IjIwMCIgd2lkdGg9IjIwMCIgdmVyc2lvbj0iMS4xIiB2aWV3Qm94PSIwIDAgMTAyNCAxMDI0IiBjbGFzcz0iaWNvbiI+PHBhdGggZmlsbD0iIzI3MjYzNiIgZD0iTTc1My44NDUxMTcgMzcxLjY3NDAyMWwtMTcuNDYyNzIgMCAwLTgzLjY2OTYwOGMwLTU5LjI3NTAxMi0yMi42MjgzNy0xMTUuMjAzODEyLTYzLjcxNTEzNy0xNTcuNDgyNzMxLTQyLjE3MDQ0OC00My4zOTQzMjMtOTkuMzY5MTcyLTY3LjI5MTU5Mi0xNjEuMDU4MTYzLTY3LjI5MTU5Mi0xMjYuMDQwNjI0IDAtMjI0Ljc3MjI3NiA5OC43MzE2NTItMjI0Ljc3MjI3NiAyMjQuNzczM2wwIDgzLjY2OTYwOC0xNi42ODA5MTQgMGMtNjIuNzg4MDIyIDAtMTEzLjY4ODI5NSA1MC45MDAyNzQtMTEzLjY4ODI5NSAxMTMuNjg4Mjk1TDE1Ni40Njc2MTEgODQyLjk2MTc4NGMwIDYyLjc4ODAyMiA1MC45MDAyNzQgMTEzLjY4ODI5NSAxMTMuNjg4Mjk1IDExMy42ODgyOTVsNDgzLjY5MDIzNCAwYzYyLjc4ODAyMiAwIDExMy42ODgyOTUtNTAuOTAwMjc0IDExMy42ODgyOTUtMTEzLjY4ODI5NUw4NjcuNTM0NDM2IDQ4NS4zNjIzMTZDODY3LjUzMjM4OSA0MjIuNTc0Mjk1IDgxNi42MzMxMzkgMzcxLjY3NDAyMSA3NTMuODQ1MTE3IDM3MS42NzQwMjF6TTMyOC4xNzYzNDQgMjg4LjAwNTQzNmMwLTEwMi44NTg2NDYgODAuNTczMDgzLTE4My40MzI3NTMgMTgzLjQzMTcyOS0xODMuNDMyNzUzIDUwLjQyMzQxMyAwIDk3LjA5MzMzOSAxOS40NDc5MzQgMTMxLjQxMDkzNSA1NC43NjIyMzEgMzMuNTQ3MDQ3IDM0LjUxOTE4OCA1Mi4wMjE4MTcgODAuMjE0OTI2IDUyLjAyMTgxNyAxMjguNjcwNTIxbDAgODMuNjY5NjA4TDMyOC4xNzYzNDQgMzcxLjY3NTA0NCAzMjguMTc2MzQ0IDI4OC4wMDU0MzZ6TTgyNi4xOTE4NDIgODQyLjk2MTc4NGMwIDM5Ljk1NjAxNC0zMi4zOTA3MTEgNzIuMzQ2NzI1LTcyLjM0NjcyNSA3Mi4zNDY3MjVMMjcwLjE1NDg4MyA5MTUuMzA4NTA5Yy0zOS45NTYwMTQgMC03Mi4zNDY3MjUtMzIuMzkwNzExLTcyLjM0NjcyNS03Mi4zNDY3MjVMMTk3LjgwODE1OCA0ODUuMzYyMzE2YzAtMzkuOTU2MDE0IDMyLjM5MDcxMS03Mi4zNDY3MjUgNzIuMzQ2NzI1LTcyLjM0NjcyNWw0ODMuNjkwMjM0IDBjMzkuOTU2MDE0IDAgNzIuMzQ2NzI1IDMyLjM5MDcxMSA3Mi4zNDY3MjUgNzIuMzQ2NzI1TDgyNi4xOTE4NDIgODQyLjk2MTc4NHoiLz48cGF0aCBmaWxsPSIjMjcyNjM2IiBkPSJNNTA5LjkzMjkyMSA1ODAuNDQ2OTA1Yy0xMS40MTYwMDQgMC0yMC42NzA3ODUgOS4yNTQ3ODEtMjAuNjcwNzg1IDIwLjY3MDc4NWwwIDEwOS41NTQxMzhjMCAxMS40MTQ5ODEgOS4yNTQ3ODEgMjAuNjcwNzg1IDIwLjY3MDc4NSAyMC42NzA3ODUgMTEuNDE2MDA0IDAgMjAuNjcwNzg1LTkuMjU0NzgxIDIwLjY3MDc4NS0yMC42NzA3ODVMNTMwLjYwMzcwNyA2MDEuMTE2NjY3QzUzMC42MDI2ODMgNTg5LjcwMTY4NiA1MjEuMzQ4OTI1IDU4MC40NDY5MDUgNTA5LjkzMjkyMSA1ODAuNDQ2OTA1eiIvPjwvc3ZnPg==;" vertex="1" parent="89">
                    <mxGeometry x="93" y="-13" width="42" height="42" as="geometry"/>
                </mxCell>
                <mxCell id="79" style="edgeStyle=orthogonalEdgeStyle;curved=1;html=1;fontSize=16;fillColor=#1ba1e2;strokeColor=#006EAF;sketch=1;curveFitting=1;jiggle=2;entryX=0.5;entryY=0;entryDx=0;entryDy=0;" parent="1" source="62" edge="1" target="68">
                    <mxGeometry relative="1" as="geometry">
                        <mxPoint x="885" y="412" as="targetPoint"/>
                    </mxGeometry>
                </mxCell>
                <mxCell id="94" value="" style="shape=image;verticalLabelPosition=bottom;labelBackgroundColor=default;verticalAlign=top;aspect=fixed;imageAspect=0;image=data:image/svg+xml,PHN2ZyB4bWxuczp4bGluaz0iaHR0cDovL3d3dy53My5vcmcvMTk5OS94bGluayIgeG1sbnM9Imh0dHA6Ly93d3cudzMub3JnLzIwMDAvc3ZnIiBoZWlnaHQ9IjIwMCIgd2lkdGg9IjIwMCIgdmVyc2lvbj0iMS4xIiB2aWV3Qm94PSIwIDAgMTAyNCAxMDI0IiBjbGFzcz0iaWNvbiI+PHBhdGggZmlsbD0iIzI3MjYzNiIgZD0iTTc1My44NDUxMTcgMzcxLjY3NDAyMWwtMTcuNDYyNzIgMCAwLTgzLjY2OTYwOGMwLTU5LjI3NTAxMi0yMi42MjgzNy0xMTUuMjAzODEyLTYzLjcxNTEzNy0xNTcuNDgyNzMxLTQyLjE3MDQ0OC00My4zOTQzMjMtOTkuMzY5MTcyLTY3LjI5MTU5Mi0xNjEuMDU4MTYzLTY3LjI5MTU5Mi0xMjYuMDQwNjI0IDAtMjI0Ljc3MjI3NiA5OC43MzE2NTItMjI0Ljc3MjI3NiAyMjQuNzczM2wwIDgzLjY2OTYwOC0xNi42ODA5MTQgMGMtNjIuNzg4MDIyIDAtMTEzLjY4ODI5NSA1MC45MDAyNzQtMTEzLjY4ODI5NSAxMTMuNjg4Mjk1TDE1Ni40Njc2MTEgODQyLjk2MTc4NGMwIDYyLjc4ODAyMiA1MC45MDAyNzQgMTEzLjY4ODI5NSAxMTMuNjg4Mjk1IDExMy42ODgyOTVsNDgzLjY5MDIzNCAwYzYyLjc4ODAyMiAwIDExMy42ODgyOTUtNTAuOTAwMjc0IDExMy42ODgyOTUtMTEzLjY4ODI5NUw4NjcuNTM0NDM2IDQ4NS4zNjIzMTZDODY3LjUzMjM4OSA0MjIuNTc0Mjk1IDgxNi42MzMxMzkgMzcxLjY3NDAyMSA3NTMuODQ1MTE3IDM3MS42NzQwMjF6TTMyOC4xNzYzNDQgMjg4LjAwNTQzNmMwLTEwMi44NTg2NDYgODAuNTczMDgzLTE4My40MzI3NTMgMTgzLjQzMTcyOS0xODMuNDMyNzUzIDUwLjQyMzQxMyAwIDk3LjA5MzMzOSAxOS40NDc5MzQgMTMxLjQxMDkzNSA1NC43NjIyMzEgMzMuNTQ3MDQ3IDM0LjUxOTE4OCA1Mi4wMjE4MTcgODAuMjE0OTI2IDUyLjAyMTgxNyAxMjguNjcwNTIxbDAgODMuNjY5NjA4TDMyOC4xNzYzNDQgMzcxLjY3NTA0NCAzMjguMTc2MzQ0IDI4OC4wMDU0MzZ6TTgyNi4xOTE4NDIgODQyLjk2MTc4NGMwIDM5Ljk1NjAxNC0zMi4zOTA3MTEgNzIuMzQ2NzI1LTcyLjM0NjcyNSA3Mi4zNDY3MjVMMjcwLjE1NDg4MyA5MTUuMzA4NTA5Yy0zOS45NTYwMTQgMC03Mi4zNDY3MjUtMzIuMzkwNzExLTcyLjM0NjcyNS03Mi4zNDY3MjVMMTk3LjgwODE1OCA0ODUuMzYyMzE2YzAtMzkuOTU2MDE0IDMyLjM5MDcxMS03Mi4zNDY3MjUgNzIuMzQ2NzI1LTcyLjM0NjcyNWw0ODMuNjkwMjM0IDBjMzkuOTU2MDE0IDAgNzIuMzQ2NzI1IDMyLjM5MDcxMSA3Mi4zNDY3MjUgNzIuMzQ2NzI1TDgyNi4xOTE4NDIgODQyLjk2MTc4NHoiLz48cGF0aCBmaWxsPSIjMjcyNjM2IiBkPSJNNTA5LjkzMjkyMSA1ODAuNDQ2OTA1Yy0xMS40MTYwMDQgMC0yMC42NzA3ODUgOS4yNTQ3ODEtMjAuNjcwNzg1IDIwLjY3MDc4NWwwIDEwOS41NTQxMzhjMCAxMS40MTQ5ODEgOS4yNTQ3ODEgMjAuNjcwNzg1IDIwLjY3MDc4NSAyMC42NzA3ODUgMTEuNDE2MDA0IDAgMjAuNjcwNzg1LTkuMjU0NzgxIDIwLjY3MDc4NS0yMC42NzA3ODVMNTMwLjYwMzcwNyA2MDEuMTE2NjY3QzUzMC42MDI2ODMgNTg5LjcwMTY4NiA1MjEuMzQ4OTI1IDU4MC40NDY5MDUgNTA5LjkzMjkyMSA1ODAuNDQ2OTA1eiIvPjwvc3ZnPg==;" vertex="1" parent="1">
                    <mxGeometry x="1127" y="370" width="42" height="42" as="geometry"/>
                </mxCell>
                <mxCell id="96" value="" style="shape=image;verticalLabelPosition=bottom;labelBackgroundColor=default;verticalAlign=top;aspect=fixed;imageAspect=0;image=data:image/svg+xml,PHN2ZyB4bWxuczp4bGluaz0iaHR0cDovL3d3dy53My5vcmcvMTk5OS94bGluayIgeG1sbnM9Imh0dHA6Ly93d3cudzMub3JnLzIwMDAvc3ZnIiBoZWlnaHQ9IjIwMCIgd2lkdGg9IjIwMCIgdmVyc2lvbj0iMS4xIiB2aWV3Qm94PSIwIDAgMTAyNCAxMDI0IiBjbGFzcz0iaWNvbiI+PHBhdGggZmlsbD0iIzI3MjYzNiIgZD0iTTc1My44NDUxMTcgMzcxLjY3NDAyMWwtMTcuNDYyNzIgMCAwLTgzLjY2OTYwOGMwLTU5LjI3NTAxMi0yMi42MjgzNy0xMTUuMjAzODEyLTYzLjcxNTEzNy0xNTcuNDgyNzMxLTQyLjE3MDQ0OC00My4zOTQzMjMtOTkuMzY5MTcyLTY3LjI5MTU5Mi0xNjEuMDU4MTYzLTY3LjI5MTU5Mi0xMjYuMDQwNjI0IDAtMjI0Ljc3MjI3NiA5OC43MzE2NTItMjI0Ljc3MjI3NiAyMjQuNzczM2wwIDgzLjY2OTYwOC0xNi42ODA5MTQgMGMtNjIuNzg4MDIyIDAtMTEzLjY4ODI5NSA1MC45MDAyNzQtMTEzLjY4ODI5NSAxMTMuNjg4Mjk1TDE1Ni40Njc2MTEgODQyLjk2MTc4NGMwIDYyLjc4ODAyMiA1MC45MDAyNzQgMTEzLjY4ODI5NSAxMTMuNjg4Mjk1IDExMy42ODgyOTVsNDgzLjY5MDIzNCAwYzYyLjc4ODAyMiAwIDExMy42ODgyOTUtNTAuOTAwMjc0IDExMy42ODgyOTUtMTEzLjY4ODI5NUw4NjcuNTM0NDM2IDQ4NS4zNjIzMTZDODY3LjUzMjM4OSA0MjIuNTc0Mjk1IDgxNi42MzMxMzkgMzcxLjY3NDAyMSA3NTMuODQ1MTE3IDM3MS42NzQwMjF6TTMyOC4xNzYzNDQgMjg4LjAwNTQzNmMwLTEwMi44NTg2NDYgODAuNTczMDgzLTE4My40MzI3NTMgMTgzLjQzMTcyOS0xODMuNDMyNzUzIDUwLjQyMzQxMyAwIDk3LjA5MzMzOSAxOS40NDc5MzQgMTMxLjQxMDkzNSA1NC43NjIyMzEgMzMuNTQ3MDQ3IDM0LjUxOTE4OCA1Mi4wMjE4MTcgODAuMjE0OTI2IDUyLjAyMTgxNyAxMjguNjcwNTIxbDAgODMuNjY5NjA4TDMyOC4xNzYzNDQgMzcxLjY3NTA0NCAzMjguMTc2MzQ0IDI4OC4wMDU0MzZ6TTgyNi4xOTE4NDIgODQyLjk2MTc4NGMwIDM5Ljk1NjAxNC0zMi4zOTA3MTEgNzIuMzQ2NzI1LTcyLjM0NjcyNSA3Mi4zNDY3MjVMMjcwLjE1NDg4MyA5MTUuMzA4NTA5Yy0zOS45NTYwMTQgMC03Mi4zNDY3MjUtMzIuMzkwNzExLTcyLjM0NjcyNS03Mi4zNDY3MjVMMTk3LjgwODE1OCA0ODUuMzYyMzE2YzAtMzkuOTU2MDE0IDMyLjM5MDcxMS03Mi4zNDY3MjUgNzIuMzQ2NzI1LTcyLjM0NjcyNWw0ODMuNjkwMjM0IDBjMzkuOTU2MDE0IDAgNzIuMzQ2NzI1IDMyLjM5MDcxMSA3Mi4zNDY3MjUgNzIuMzQ2NzI1TDgyNi4xOTE4NDIgODQyLjk2MTc4NHoiLz48cGF0aCBmaWxsPSIjMjcyNjM2IiBkPSJNNTA5LjkzMjkyMSA1ODAuNDQ2OTA1Yy0xMS40MTYwMDQgMC0yMC42NzA3ODUgOS4yNTQ3ODEtMjAuNjcwNzg1IDIwLjY3MDc4NWwwIDEwOS41NTQxMzhjMCAxMS40MTQ5ODEgOS4yNTQ3ODEgMjAuNjcwNzg1IDIwLjY3MDc4NSAyMC42NzA3ODUgMTEuNDE2MDA0IDAgMjAuNjcwNzg1LTkuMjU0NzgxIDIwLjY3MDc4NS0yMC42NzA3ODVMNTMwLjYwMzcwNyA2MDEuMTE2NjY3QzUzMC42MDI2ODMgNTg5LjcwMTY4NiA1MjEuMzQ4OTI1IDU4MC40NDY5MDUgNTA5LjkzMjkyMSA1ODAuNDQ2OTA1eiIvPjwvc3ZnPg==;" vertex="1" parent="1">
                    <mxGeometry x="505" y="414" width="42" height="42" as="geometry"/>
                </mxCell>
            </root>
        </mxGraphModel>
    </diagram>
</mxfile>